# AST/ASF file generated using VICON BodyLanguage
# -----------------------------------------------
:version 1.10
:name VICON
:units
  mass 1.0
  length 0.45
  angle deg
:documentation
   .ast/.asf automatically generated from VICON data using
   VICON BodyBuilder and BodyLanguage model FoxedUp or BRILLIANT.MOD
:root
   order TX TY TZ RX RY RZ
   axis XYZ
   position 0 0 0  
   orientation 0 0 0 
:bonedata
  begin
     id 1 
     name lhipjoint
     direction 0.635376 -0.686425 0.353719 
     length 2.47244 
     axis 0 0 0  XYZ
  end
  begin
     id 2 
     name lfemur
     direction 0.34202 -0.939693 0  
     length 7.25268  
     axis 0 0 20  XYZ
    dof rx ry rz
    limits (-160.0 20.0)
           (-70.0 70.0)
           (-60.0 70.0)
  end
  begin
     id 3 
     name ltibia
     direction 0.34202 -0.939693 0   
     length 7.6767   
     axis 0 0 20   XYZ
    dof rx
    limits (-10.0 170.0)
  end
  begin
     id 4 
     name lfoot
     direction 0.0803374 -0.220725 0.972022   
     length 2.22945   
     axis -90 7.62852e-016 20   XYZ
    dof rx rz
    limits (-45.0 90.0)
           (-70.0 20.0)
  end
  begin
     id 5 
     name ltoes
     direction 1.53579e-011 -4.21994e-011 1   
     length 1.11848   
     axis -90 7.62852e-016 20   XYZ
    dof rx
    limits (-90.0 20.0)
  end
  begin
     id 6 
     name rhipjoint
     direction -0.664428 -0.664335 0.342336   
     length 2.55466  
     axis 0 0 0  XYZ 
  end
  begin
     id 7 
     name rfemur
     direction -0.34202 -0.939693 0   
     length 6.83172   
     axis 0 0 -20   XYZ
    dof rx ry rz
    limits (-160.0 20.0)
           (-70.0 70.0)
           (-70.0 60.0)
  end
  begin
     id 8 
     name rtibia
     direction -0.34202 -0.939693 0   
     length 7.62692   
     axis 0 0 -20   XYZ
    dof rx
    limits (-10.0 170.0)
 end
 begin
     id 9 
     name rfoot
     direction -0.0949276 -0.260811 0.960711   
     length 2.19684  
     axis -90 -7.62852e-016 -20   XYZ
    dof rx rz
    limits (-45.0 90.0)
           (-20.0 70.0)
  end
  begin
     id 10 
     name rtoes
     direction -1.53543e-011 -4.2183e-011 1   
     length 1.09848   
     axis -90 -7.62852e-016 -20   XYZ
    dof rx
    limits (-90.0 20.0)
  end
  begin
     id 11 
     name lowerback
     direction 0.0118782 0.999815 -0.0151555   
     length 2.15772   
     axis 0 0 0   XYZ
    dof rx ry rz
    limits (-20.0 45.0)
           (-30.0 30.0)
           (-30.0 30.0)
  end
  begin
     id 12 
     name upperback
     direction 0.00130825 0.999065 0.0432113   
     length 2.14863   
     axis 0 0 0   XYZ
    dof rx ry rz
    limits (-20.0 45.0)
           (-30.0 30.0)
           (-30.0 30.0)
  end
  begin
     id 13 
     name thorax
     direction -0.00347005 0.998773 0.0494011   
     length 2.14936   
     axis 0 0 0   XYZ
    dof rx ry rz
    limits (-20.0 45.0)
           (-30.0 30.0)
           (-30.0 30.0)
  end
  begin
     id 14 
     name lowerneck
     direction -0.0262159 0.99424 0.103921   
     length 1.69373   
     axis 0 0 0   XYZ
    dof rx ry rz
    limits (-20.0 45.0)
           (-30.0 30.0)
           (-30.0 30.0)
  end
  begin
     id 15 
     name upperneck
     direction 0.0353511 0.977394 -0.20845   
     length 1.70857   
     axis 0 0 0   XYZ
    dof rx ry rz
    limits (-20.0 45.0)
           (-30.0 30.0)
           (-30.0 30.0)
  end
  begin
     id 16
     name head
     direction 0.0139214 0.996594 -0.0812836  
     length 1.72777  
     axis 0 0 0   XYZ
    dof rx ry rz
    limits (-20.0 45.0)
           (-30.0 30.0)
           (-30.0 30.0)
  end
  begin
     id 17 
     name lclavicle
     direction 0.841247 0.537205 -0.0609508  
     length 3.55371  
     axis 0 0 0   XYZ
    dof ry rz
    limits (-20.0 10.0)
           (0.0 20.0)
  end
  begin
     id 18 
     name lhumerus
     direction 1 -4.48964e-011 1.60116e-018   
     length 4.91377   
     axis -180 -30 -90   XYZ
    dof rx ry rz
    limits (-60.0 90.0)
           (-90.0 90.0)
           (-90.0 90.0)
  end
  begin
     id 19
     name lradius
     direction 1 -4.48989e-011 -8.93847e-027   
     length 3.00291   
     axis -180 -30 -90   XYZ
    dof rx
    limits (-10.0 170.0)
  end
  begin
     id 20
     name lwrist
     direction 1 -4.48932e-011 -7.31504e-027   
     length 1.50145   
     axis 5.74121e-015 90 90   XYZ
    dof ry
    limits (-180.0 0.0)
 end
  begin
     id 21 
     name lhand
     direction 1 -4.48971e-011 -1.46301e-026   
     length 0.450922   
     axis 9.33524e-015 90 90   XYZ
    dof rx rz
    limits (-90.0 90.0)
           (-45.0 45.0)
  end
  begin
     id 22 
     name lfingers
     direction 1 -4.49039e-011 -2.92602e-026   
     length 0.363545   
     axis 1.86705e-014 90 90   XYZ
    dof rx
    limits (0.0 90.0)
  end
  begin
     id 23
     name lthumb
     direction 0.707107 -6.34941e-011 0.707107   
     length 0.52198   
     axis -90 45 2.85299e-015   XYZ
    dof rx rz
    limits (-45.0 45.0)
           (-45.0 45.0)
  end
  begin
     id 24 
     name rclavicle
     direction -0.825079 0.56158 -0.0622297   
     length 3.39909  
     axis 0 0 0   XYZ 
    dof ry rz
    limits (-10.0 20.0)
           (-20.0 0.0)
  end
  begin
     id 25 
     name rhumerus
     direction -1 -4.48965e-011 1.61691e-027  
     length 4.86725   
     axis -180 30 90   XYZ
    dof rx ry rz
    limits (-90.0 60.0)
           (-90.0 90.0)
           (-90.0 90.0)
  end
  begin
     id 26 
     name rradius
     direction -1 -4.48964e-011 -2.25776e-027   
     length 3.17144   
     axis -180 30 90   XYZ
    dof rx
    limits (-10.0 170.0)
  end
  begin
     id 27 
     name rwrist
     direction -1 -4.48961e-011 -7.31504e-027   
     length 1.58572   
     axis 5.74121e-015 -90 -90   XYZ
    dof ry
    limits (-180.0 0.0)
  end
  begin
     id 28
     name rhand
     direction -1 -4.49013e-011 -1.46301e-026   
     length 0.419368   
     axis 9.33524e-015 -90 -90   XYZ
    dof rx rz
    limits (-90.0 90.0)
           (-45.0 45.0)
  end
  begin
     id 29
     name rfingers
     direction -1 -4.489e-011 -2.92602e-026   
     length 0.338105   
     axis 1.86705e-014 -90 -90   XYZ
    dof rx
    limits (0.0 90.0)
  end
  begin
     id 30
     name rthumb
     direction -0.707107 -6.35022e-011 0.707107   
     length 0.485453   
     axis -90 -45 -2.85299e-015   XYZ
    dof rx rz
    limits (-45.0 45.0)
           (-45.0 45.0)
  end
:hierarchy
  begin
    root lhipjoint rhipjoint lowerback
    lhipjoint lfemur
    lfemur ltibia
    ltibia lfoot
    lfoot ltoes
    rhipjoint rfemur
    rfemur rtibia
    rtibia rfoot
    rfoot rtoes
    lowerback upperback
    upperback thorax
    thorax lowerneck lclavicle rclavicle
    lowerneck upperneck
    upperneck head
    lclavicle lhumerus
    lhumerus lradius
    lradius lwrist
    lwrist lhand lthumb
    lhand lfingers
    rclavicle rhumerus
    rhumerus rradius
    rradius rwrist
    rwrist rhand rthumb
    rhand rfingers
  end

#!OML:ASF H:\Swim 2\Project 1\Capture day 1\Session 1\male.ASF
:FULLY-SPECIFIED
:DEGREES
674
root 7.38074 9.10914 10.213 84.8975 2.01386 3.71766
lowerback 1.01661 3.43774 -3.17265
upperback 0.0278393 4.57219 2.67531
thorax -1.008 2.31128 4.42792
lowerneck -1.45059 -6.21446 -16.7626
upperneck 5.31083 -9.78488 33.2413
head 4.50902 -4.52007 13.7507
rclavicle -6.36111e-015 -1.2921e-014
rhumerus 35.2492 31.5247 -2.36478
rradius 125.335
rwrist -29.9104
rhand -54.2318 5.70123
rfingers 7.12502
rthumb -26.6451 -22.4436
lclavicle -6.36111e-015 -1.2921e-014
lhumerus 61.7476 -31.4723 7.68062
lradius 125.454
lwrist 45.0683
lhand -57.8794 -13.2226
lfingers 7.12502
lthumb -30.1308 14.3409
rfemur -52.9396 5.32824 20.0343
rtibia 63.4971
rfoot 25.4851 12.14
rtoes 11.9287
lfemur -52.0371 -6.08549 -25.9098
ltibia 73.5746
lfoot 2.50462 1.12296
ltoes 7.588
675
root 7.38449 9.11441 10.2256 84.8081 2.05783 3.80518
lowerback 1.1568 3.39529 -3.06891
upperback 0.0171685 4.51307 2.65496
thorax -1.08177 2.28239 4.34131
lowerneck -1.51167 -6.23821 -16.7986
upperneck 5.40597 -9.84589 33.3889
head 4.57866 -4.54035 13.8218
rclavicle -2.70347e-014 2.98177e-015
rhumerus 35.5561 31.0351 -2.60259
rradius 125.211
rwrist -29.3343
rhand -54.2106 5.31128
rfingers 7.12502
rthumb -26.6249 -22.8366
lclavicle -2.70347e-014 2.98177e-015
lhumerus 62.006 -31.1295 8.08008
lradius 125.295
lwrist 44.0964
lhand -58.0733 -12.7551
lfingers 7.12502
lthumb -30.3158 14.7745
rfemur -53.5064 4.91874 20.2246
rtibia 64.5074
rfoot 25.3645 12.1839
rtoes 12.218
lfemur -52.6922 -6.16607 -25.8308
ltibia 74.9175
lfoot 2.58951 0.942412
ltoes 7.74326
676
root 7.38831 9.11975 10.2378 84.7369 2.1008 3.89466
lowerback 1.27451 3.35712 -2.96307
upperback 0.00531639 4.46057 2.6328
thorax -1.14475 2.25657 4.25305
lowerneck -1.59005 -6.26857 -16.8366
upperneck 5.52001 -9.91859 33.5258
head 4.66005 -4.56387 13.888
rclavicle -1.11319e-014 -2.80286e-014
rhumerus 35.875 30.5034 -2.82554
rradius 125.076
rwrist -28.7853
rhand -54.1639 4.89071
rfingers 7.12502
rthumb -26.5802 -23.264
lclavicle -1.11319e-014 -2.80286e-014
lhumerus 62.2811 -30.78 8.53538
lradius 125.128
lwrist 43.1972
lhand -58.2835 -12.3402
lfingers 7.12502
lthumb -30.5163 15.1523
rfemur -54.0805 4.4846 20.4268
rtibia 65.5171
rfoot 25.1187 12.2463
rtoes 12.4784
lfemur -53.3644 -6.24104 -25.7574
ltibia 76.266
lfoot 2.63744 0.794699
ltoes 7.92427
677
root 7.39201 9.12523 10.25 84.6689 2.13507 3.97198
lowerback 1.38172 3.33015 -2.86751
upperback -0.00531302 4.42336 2.61062
thorax -1.20306 2.2383 4.17084
lowerneck -1.66178 -6.30225 -16.8822
upperneck 5.63305 -9.9957 33.6558
head 4.74141 -4.5902 13.9527
rclavicle -5.56597e-014 1.33186e-014
rhumerus 36.1998 29.92 -3.04103
rradius 124.958
rwrist -28.39
rhand -54.0538 4.49573
rfingers 7.12502
rthumb -26.4748 -23.6749
lclavicle -5.56597e-014 1.33186e-014
lhumerus 62.5566 -30.4238 9.08158
lradius 124.982
lwrist 42.4991
lhand -58.4816 -12.0622
lfingers 7.12502
lthumb -30.7052 15.395
rfemur -54.6425 4.03649 20.6375
rtibia 66.5192
rfoot 24.7243 12.345
rtoes 12.6689
lfemur -54.0264 -6.29481 -25.6971
ltibia 77.6097
lfoot 2.66637 0.687138
ltoes 8.19246
678
root 7.39537 9.13103 10.263 84.5798 2.15465 4.02354
lowerback 1.50183 3.31898 -2.79113
upperback -0.00877947 4.40676 2.58998
thorax -1.26487 2.23029 4.09974
lowerneck -1.71119 -6.33635 -16.9345
upperneck 5.72997 -10.0709 33.7784
head 4.81347 -4.61835 14.0161
rclavicle 1.43125e-014 -7.35503e-015
rhumerus 36.5325 29.3034 -3.24658
rradius 124.862
rwrist -28.1361
rhand -53.9461 4.1499
rfingers 7.12502
rthumb -26.3718 -24.0362
lclavicle 1.43125e-014 -7.35503e-015
lhumerus 62.8178 -30.06 9.72793
lradius 124.874
lwrist 42.0345
lhand -58.6489 -11.9834
lfingers 7.12502
lthumb -30.8646 15.4438
rfemur -55.1656 3.58642 20.8559
rtibia 67.5099
rfoot 24.2006 12.4923
rtoes 12.7572
lfemur -54.6416 -6.30732 -25.6555
ltibia 78.9387
lfoot 2.68415 0.608714
ltoes 8.49659
679
root 7.39773 9.13723 10.2776 84.4139 2.15113 4.0202
lowerback 1.69116 3.33605 -2.74994
upperback 0.00865244 4.42565 2.57476
thorax -1.35038 2.24008 4.04901
lowerneck -1.71915 -6.36976 -16.9941
upperneck 5.7914 -10.1398 33.8975
head 4.86595 -4.64888 14.0799
rclavicle -1.11319e-014 -2.38542e-015
rhumerus 36.8702 28.6554 -3.44613
rradius 124.788
rwrist -28.0264
rhand -53.8544 3.82641
rfingers 7.12502
rthumb -26.284 -24.3728
lclavicle -1.11319e-014 -2.38542e-015
lhumerus 63.0654 -29.6937 10.4613
lradius 124.805
lwrist 41.7698
lhand -58.8221 -12.248
lfingers 7.12502
lthumb -31.0298 15.1478
rfemur -55.5842 3.16564 21.0804
rtibia 68.4856
rfoot 23.5799 12.6911
rtoes 12.7853
lfemur -55.1379 -6.2352 -25.6433
ltibia 80.2479
lfoot 2.68347 0.552621
ltoes 8.74147
680
root 7.39975 9.14378 10.2927 84.2266 2.12645 3.99349
lowerback 1.89327 3.36775 -2.73957
upperback 0.032348 4.46321 2.56205
thorax -1.44084 2.25933 4.01667
lowerneck -1.67438 -6.40071 -17.0585
upperneck 5.80134 -10.1971 34.0128
head 4.89031 -4.68102 14.1435
rclavicle 9.54166e-014 -6.36111e-015
rhumerus 37.2107 27.9807 -3.64528
rradius 124.727
rwrist -28.0132
rhand -53.807 3.51555
rfingers 7.12502
rthumb -26.2386 -24.6904
lclavicle 9.54166e-014 -6.36111e-015
lhumerus 63.2939 -29.3164 11.2681
lradius 124.773
lwrist 41.6318
lhand -59.0221 -12.9265
lfingers 7.12502
lthumb -31.2204 14.4327
rfemur -55.968 2.74857 21.2986
rtibia 69.4515
rfoot 22.9065 12.9278
rtoes 12.7266
lfemur -55.581 -6.11692 -25.6557
ltibia 81.537
lfoot 2.69502 0.509404
ltoes 8.97807
681
root 7.40193 9.15006 10.306 84.054 2.08127 3.96664
lowerback 2.07589 3.40454 -2.75434
upperback 0.0526264 4.50746 2.54819
thorax -1.52632 2.28211 3.99783
lowerneck -1.58445 -6.42844 -17.122
upperneck 5.76014 -10.2408 34.1188
head 4.88665 -4.7131 14.2029
rclavicle -1.11319e-014 4.77083e-015
rhumerus 37.5582 27.3091 -3.82232
rradius 124.665
rwrist -28.0718
rhand -53.8931 3.4141
rfingers 7.12502
rthumb -26.321 -24.7796
lclavicle -1.11319e-014 4.77083e-015
lhumerus 63.5147 -28.9282 12.1142
lradius 124.756
lwrist 41.4931
lhand -59.1909 -13.5758
lfingers 7.12502
lthumb -31.3813 13.7523
rfemur -56.3714 2.32962 21.4967
rtibia 70.4215
rfoot 22.2319 13.1873
rtoes 12.5752
lfemur -56.0317 -5.97841 -25.6954
ltibia 82.8212
lfoot 2.72392 0.459737
ltoes 9.14191
682
root 7.40371 9.15643 10.3193 83.8546 2.02173 3.92019
lowerback 2.28244 3.45414 -2.7932
upperback 0.0815099 4.56747 2.53846
thorax -1.62002 2.31288 3.99452
lowerneck -1.46996 -6.45438 -17.1807
upperneck 5.68587 -10.2754 34.2114
head 4.86481 -4.74448 14.2551
rclavicle 2.70347e-014 -9.54166e-015
rhumerus 37.913 26.6463 -3.97328
rradius 124.586
rwrist -28.1528
rhand -54.1332 3.58656
rfingers 7.12502
rthumb -26.5508 -24.5726
lclavicle 2.70347e-014 -9.54166e-015
lhumerus 63.7411 -28.5275 12.9742
lradius 124.736
lwrist 41.2766
lhand -59.3357 -14.1419
lfingers 7.12502
lthumb -31.5192 13.1593
rfemur -56.7351 1.93159 21.6854
rtibia 71.3855
rfoot 21.5906 13.4666
rtoes 12.3617
lfemur -56.4315 -5.79268 -25.7538
ltibia 84.0919
lfoot 2.73965 0.390262
ltoes 9.23823
683
root 7.40534 9.16266 10.3317 83.6473 1.95433 3.86744
lowerback 2.4969 3.51178 -2.84577
upperback 0.113328 4.63741 2.53149
thorax -1.71741 2.3487 4.00049
lowerneck -1.34199 -6.47761 -17.2334
upperneck 5.58685 -10.3006 34.2924
head 4.8293 -4.77363 14.3009
rclavicle -3.33958e-014 -7.15625e-015
rhumerus 38.27 25.9886 -4.10694
rradius 124.469
rwrist -28.1734
rhand -54.5145 3.98595
rfingers 7.12502
rthumb -26.9157 -24.1175
lclavicle -3.33958e-014 -7.15625e-015
lhumerus 63.9822 -28.1027 13.8439
lradius 124.701
lwrist 40.9562
lhand -59.4122 -14.2637
lfingers 7.12502
lthumb -31.592 13.0232
rfemur -57.0836 1.54918 21.8634
rtibia 72.3493
rfoot 20.995 13.7629
rtoes 12.0918
lfemur -56.8116 -5.57619 -25.8242
ltibia 85.3553
lfoot 2.72465 0.291454
ltoes 9.25132
684
root 7.40667 9.16886 10.3436 83.4222 1.8805 3.80526
lowerback 2.73183 3.57858 -2.9092
upperback 0.150005 4.71841 2.52671
thorax -1.82344 2.39015 4.01259
lowerneck -1.21437 -6.49828 -17.2789
upperneck 5.48132 -10.3198 34.3642
head 4.78915 -4.80005 14.3412
rclavicle -2.54444e-014 -1.61016e-014
rhumerus 38.626 25.3052 -4.24713
rradius 124.292
rwrist -28.0397
rhand -54.9808 4.41617
rfingers 7.12502
rthumb -27.3618 -23.6176
lclavicle -2.54444e-014 -1.61016e-014
lhumerus 64.2466 -27.6492 14.7184
lradius 124.634
lwrist 40.545
lhand -59.4099 -13.9561
lfingers 7.12502
lthumb -31.5899 13.3313
rfemur -57.3997 1.18101 22.0345
rtibia 73.3099
rfoot 20.4362 14.089
rtoes 11.7634
lfemur -57.1558 -5.32441 -25.9031
ltibia 86.6044
lfoot 2.6928 0.154002
ltoes 9.14092
685
root 7.4077 9.17495 10.355 83.1839 1.80697 3.73772
lowerback 2.98441 3.65075 -2.97431
upperback 0.190363 4.80567 2.52415
thorax -1.93661 2.43473 4.02602
lowerneck -1.09737 -6.5158 -17.3204
upperneck 5.37978 -10.3344 34.4337
head 4.75044 -4.82299 14.3802
rclavicle 4.92986e-014 6.95746e-015
rhumerus 38.9845 24.5612 -4.42266
rradius 124.056
rwrist -27.8184
rhand -55.4061 4.72911
rfingers 7.12502
rthumb -27.7686 -23.2398
lclavicle 4.92986e-014 6.95746e-015
lhumerus 64.5309 -27.1482 15.6085
lradius 124.533
lwrist 40.1251
lhand -59.3425 -13.4035
lfingers 7.12502
lthumb -31.5257 13.8964
rfemur -57.687 0.815495 22.2067
rtibia 74.2726
rfoot 19.8875 14.4538
rtoes 11.372
lfemur -57.47 -5.04294 -25.9818
ltibia 87.8395
lfoot 2.63156 -0.0256027
ltoes 8.88016
686
root 7.40886 9.18085 10.3649 82.968 1.74005 3.68492
lowerback 3.21998 3.71821 -3.0298
upperback 0.224162 4.88712 2.52121
thorax -2.04575 2.47642 4.03439
lowerneck -0.992738 -6.5302 -17.3568
upperneck 5.28872 -10.3456 34.4996
head 4.71553 -4.84258 14.4169
rclavicle 9.54166e-014 2.10712e-014
rhumerus 39.3524 23.7347 -4.64804
rradius 123.751
rwrist -27.504
rhand -55.7622 4.77367
rfingers 7.12502
rthumb -28.109 -23.1398
lclavicle 9.54166e-014 2.10712e-014
lhumerus 64.8291 -26.5948 16.5247
lradius 124.378
lwrist 39.7168
lhand -59.2436 -12.8516
lfingers 7.12502
lthumb -31.4315 14.4667
rfemur -57.9927 0.423628 22.3849
rtibia 75.252
rfoot 19.3189 14.8625
rtoes 10.8973
lfemur -57.8004 -4.76236 -26.0516
ltibia 89.0644
lfoot 2.55448 -0.249496
ltoes 8.51947
687
root 7.40952 9.18655 10.3739 82.7294 1.67888 3.62566
lowerback 3.48492 3.78958 -3.08157
upperback 0.262228 4.97281 2.52189
thorax -2.16746 2.52024 4.04176
lowerneck -0.899642 -6.54141 -17.3856
upperneck 5.21299 -10.3543 34.5573
head 4.68529 -4.85893 14.4489
rclavicle -1.43125e-014 -8.15017e-015
rhumerus 39.7351 22.8248 -4.91984
rradius 123.379
rwrist -27.1503
rhand -56.044 4.52587
rfingers 7.12502
rthumb -28.3783 -23.3431
lclavicle -1.43125e-014 -8.15017e-015
lhumerus 65.1407 -25.9953 17.4642
lradius 124.149
lwrist 39.3176
lhand -59.1461 -12.4317
lfingers 7.12502
lthumb -31.3386 14.9047
rfemur -58.2615 0.0196138 22.5767
rtibia 76.2566
rfoot 18.681 15.3181
rtoes 10.3674
lfemur -58.094 -4.45136 -26.1138
ltibia 90.2807
lfoot 2.43383 -0.517584
ltoes 7.96883
